<svg xmlns="http://www.w3.org/2000/svg" version="1.1" xmlns:xlink="http://www.w3.org/1999/xlink" xmlns:svgjs="http://svgjs.dev/svgjs" width="2000" height="833" viewBox="0 0 2000 833"><g transform="matrix(1,0,0,1,-1.2121212121212466,-1.389414129279885)"><svg viewBox="0 0 396 165" data-background-color="#333b6a" preserveAspectRatio="xMidYMid meet" height="833" width="2000" xmlns="http://www.w3.org/2000/svg" xmlns:xlink="http://www.w3.org/1999/xlink"><g id="tight-bounds" transform="matrix(1,0,0,1,0.2400000000000091,0.27521408323070773)"><svg viewBox="0 0 395.52 164.44957183353858" height="164.44957183353858" width="395.52"><g><svg viewBox="0 0 571.7105166037827 237.70618342491716" height="164.44957183353858" width="395.52"><g><rect width="8.322963142279363" height="237.70618342491716" x="205.40255746864727" y="0" fill="#000000" opacity="1" stroke-width="0" stroke="transparent" fill-opacity="1" class="rect-yte-0" data-fill-palette-color="primary" rx="1%" id="yte-0" data-palette-color="#b7feae"></rect></g><g transform="matrix(1,0,0,1,235.51338223993022,0.5913089139923215)"><svg viewBox="0 0 336.19713436385257 236.5235655969325" height="236.5235655969325" width="336.19713436385257"><g id="textblocktransform"><svg viewBox="0 0 336.19713436385257 236.5235655969325" height="236.5235655969325" width="336.19713436385257" id="textblock"><g><svg viewBox="0 0 336.19713436385257 198.764" height="198.764" width="336.19713436385257"><g transform="matrix(1,0,0,1,0,0)"><svg width="336.19713436385257" viewBox="-2.149999999999994 -35.89999999999999 144.95 83.69999999999999" height="198.764" data-palette-color="#b7feae"><svg></svg><svg></svg><g class="wordmark-text-0" data-fill-palette-color="primary" id="text-0"><path d="M6.3-33.3c2.3 0.1 4.943 0.3 7.93 0.6 2.98 0.3 5.103 0.45 6.37 0.45 1.267 0 2.217-0.1 2.85-0.3v0c1.533-1.467 2.617-2.583 3.25-3.35v0l0.8 0.6c-1.767 2.3-2.833 4.7-3.2 7.2v0c-3.3-0.9-6.317-1.45-9.05-1.65v0c-0.233 3.633-0.35 8.407-0.35 14.32 0 5.92 0.217 10.48 0.65 13.68v0c1.667 0.167 3.5 0.483 5.5 0.95v0l-0.15 1.2c-2.467-0.267-5.14-0.4-8.02-0.4-2.887 0-5.213 0.133-6.98 0.4v0l-0.2-1.25c1.5-0.467 3.1-0.817 4.8-1.05v0c0.367-2.733 0.55-7.033 0.55-12.9v0-2.95c0-3.3-0.2-7.35-0.6-12.15v0h-1.3c-3.933 0-6.45 0.533-7.55 1.6v0c-0.233 0.467-0.35 1.2-0.35 2.2 0 1 0.167 1.683 0.5 2.05v0l-0.05 0.35c-0.833 0.5-1.667 1.2-2.5 2.1v0c-0.4-0.033-0.727-0.2-0.98-0.5-0.247-0.3-0.37-0.65-0.37-1.05v0c0-1.633 0.983-3.583 2.95-5.85 1.967-2.267 3.8-3.7 5.5-4.3zM28.1-24.95v-1l11.5-0.35c3 0 5.25 0.44 6.75 1.32 1.5 0.887 2.25 2.497 2.25 4.83v0c0 1.6-0.49 3.017-1.47 4.25-0.987 1.233-2.28 2.15-3.88 2.75v0l5.6 11.45c1.133 0.2 2.2 0.433 3.2 0.7v0l-0.2 1.35c-1.4-0.233-2.973-0.35-4.72-0.35-1.753 0-3.13 0.083-4.13 0.25v0l-0.2-0.8c0.433-0.433 0.65-1.15 0.65-2.15v0c0-2.033-1.167-5.3-3.5-9.8v0c-0.7-0.133-1.517-0.2-2.45-0.2v0l0.1-1.45h0.5c3.933 0 5.9-1.8 5.9-5.4v0c0-3.333-1.683-5-5.05-5v0c-1.133 0-2.15 0.183-3.05 0.55v0c-0.233 2.2-0.35 5.967-0.35 11.3 0 5.333 0.15 9.017 0.45 11.05v0c1.467 0.167 2.833 0.417 4.1 0.75v0l-0.15 1.25c-1.733-0.233-3.673-0.35-5.82-0.35-2.153 0-4.08 0.133-5.78 0.4v0l-0.2-1.3c0.933-0.3 1.983-0.55 3.15-0.75v0c0.333-2.5 0.5-6.393 0.5-11.68 0-5.28-0.15-8.937-0.45-10.97v0c-1.3-0.433-2.383-0.65-3.25-0.65zM75.3-14.2v0 2.35c0 4.567 0.167 7.983 0.5 10.25v0c1.533 0.2 2.8 0.433 3.8 0.7v0l-0.15 1.25c-1.633-0.233-3.31-0.35-5.03-0.35-1.713 0-2.887 0.05-3.52 0.15v0l-0.2-0.65c0.3-0.333 0.5-1.283 0.6-2.85v0c-1.733 1.8-3.733 3.117-6 3.95v0c-5.733 0-8.6-3.417-8.6-10.25v0c0-1.5 0.117-3.9 0.35-7.2 0.233-3.3 0.35-5.233 0.35-5.8 0-0.567-0.1-1.117-0.3-1.65v0-0.05c-1.4-0.233-2.517-0.483-3.35-0.75v0l0.2-1.35c1.933 0.267 3.683 0.4 5.25 0.4 1.567 0 2.85-0.083 3.85-0.25v0l0.2 0.85c-1.2 0.633-1.9 1.783-2.1 3.45v0c-0.4 3.2-0.6 6.483-0.6 9.85 0 3.367 0.393 5.757 1.18 7.17 0.78 1.42 2.247 2.13 4.4 2.13 2.147 0 3.887-0.617 5.22-1.85v0c0.133-2.667 0.2-5.817 0.2-9.45 0-3.633-0.133-7.05-0.4-10.25v0c-1.5-0.167-2.883-0.417-4.15-0.75v0l0.15-1.25c1.733 0.233 3.673 0.35 5.82 0.35 2.153 0 4.08-0.133 5.78-0.4v0l0.2 1.3c-0.933 0.3-1.983 0.55-3.15 0.75v0c-0.333 2.233-0.5 5.633-0.5 10.2zM99.65-23.35v0c-1.167-0.567-2.283-0.85-3.35-0.85-1.067 0-1.783 0.067-2.15 0.2v0c-0.267 1.8-0.4 5.283-0.4 10.45 0 5.167 0.183 9.133 0.55 11.9v0c1.5 0.167 2.883 0.417 4.15 0.75v0l-0.15 1.25c-1.733-0.233-3.723-0.35-5.97-0.35-2.253 0-4.23 0.133-5.93 0.4v0l-0.2-1.3c0.667-0.2 1.817-0.45 3.45-0.75v0c0.3-2.4 0.45-5.8 0.45-10.2v0-2.35c0-2.333-0.183-5.6-0.55-9.8v0c-0.367-0.133-1.05-0.2-2.05-0.2-1 0-2.067 0.233-3.2 0.7v0c-0.333 1.033-0.567 2.417-0.7 4.15v0h-1.3c0-2.733-0.45-4.85-1.35-6.35v0l0.25-0.85c2.567 0.333 6.167 0.5 10.8 0.5 4.633 0 8.367-0.183 11.2-0.55v0l0.3 0.95c-0.833 0.933-1.4 1.84-1.7 2.72-0.3 0.887-0.483 2.08-0.55 3.58v0h-1.25c-0.233-1.1-0.35-2.433-0.35-4zM120.45-25.15l0.2-1.3c1.7 0.267 3.627 0.4 5.78 0.4 2.147 0 4.087-0.117 5.82-0.35v0l0.15 1.25c-1.267 0.333-2.65 0.583-4.15 0.75v0c-0.333 2.067-0.5 5.467-0.5 10.2v0 2.35c0 4.8 0.167 8.2 0.5 10.2v0c1.5 0.167 2.883 0.417 4.15 0.75v0l-0.15 1.25c-1.733-0.233-3.673-0.35-5.82-0.35-2.153 0-4.08 0.133-5.78 0.4v0l-0.2-1.3c0.933-0.3 1.983-0.55 3.15-0.75v0c0.267-3.767 0.417-7.533 0.45-11.3v0c-2.133-0.2-4.1-0.3-5.9-0.3-1.8 0-3.75 0.1-5.85 0.3v0c0 5.5 0.15 9.267 0.45 11.3v0c1.5 0.167 2.883 0.417 4.15 0.75v0l-0.15 1.25c-1.733-0.233-3.677-0.35-5.83-0.35-2.147 0-4.07 0.133-5.77 0.4v0l-0.2-1.3c0.933-0.3 1.983-0.55 3.15-0.75v0c0.3-2.4 0.45-5.8 0.45-10.2v0-2.35c0-4.4-0.167-7.8-0.5-10.2v0c-1.167-0.2-2.217-0.45-3.15-0.75v0l0.2-1.3c1.7 0.267 3.627 0.4 5.78 0.4 2.147 0 4.087-0.117 5.82-0.35v0l0.15 1.25c-1.267 0.333-2.65 0.583-4.15 0.75v0c-0.267 1.933-0.4 4.917-0.4 8.95v0c1.867 0.267 3.877 0.4 6.03 0.4 2.147 0 4.053-0.117 5.72-0.35v0c-0.033-2.833-0.183-5.833-0.45-9v0c-1.167-0.2-2.217-0.45-3.15-0.75z" fill="#000000" fill-rule="nonzero" stroke="none" stroke-width="1" stroke-linecap="butt" stroke-linejoin="miter" stroke-miterlimit="10" stroke-dasharray="" stroke-dashoffset="0" font-family="none" font-weight="none" font-size="none" text-anchor="none" style="mix-blend-mode: normal" data-fill-palette-color="primary" opacity="1"></path><path transform="translate(0,42.05)" d="M0.55-0.6v0c0-2.933 0.643-5.467 1.93-7.6 1.28-2.133 2.62-3.2 4.02-3.2v0c0.367 0 0.733 0.117 1.1 0.35v0l0.15 0.35c-0.433 0.833-0.7 1.883-0.8 3.15v0l-0.3 0.2c-0.133-0.067-0.383-0.1-0.75-0.1-0.367 0-0.907 0.2-1.62 0.6-0.72 0.4-1.28 0.8-1.68 1.2v0c-0.233 0.467-0.35 1-0.35 1.6v0c0 1.567 1.06 2.907 3.18 4.02 2.113 1.12 4.153 1.68 6.12 1.68v0c4.1 0 6.15-2.333 6.15-7v0c0-1.767-1.683-3.983-5.05-6.65v0c-1.4-1.133-2.8-2.267-4.2-3.4v0c-3.367-2.667-5.05-4.983-5.05-6.95v0c0-2.333 1.05-4.51 3.15-6.53 2.1-2.013 4.483-3.487 7.15-4.42v0c2.867 0 5.583 0.283 8.15 0.85v0 1c-1.733 1.6-2.7 4.067-2.9 7.4v0h-1.25c0-1.767-0.083-3.317-0.25-4.65v0c-1.433-0.667-2.99-1-4.67-1-1.687 0-3.113 0.357-4.28 1.07-1.167 0.72-1.75 1.63-1.75 2.73 0 1.1 0.49 2.207 1.47 3.32 0.987 1.12 2.18 2.203 3.58 3.25 1.4 1.053 2.793 2.12 4.18 3.2 1.38 1.087 2.563 2.253 3.55 3.5 0.98 1.253 1.47 2.463 1.47 3.63v0c0 3.333-0.917 6.3-2.75 8.9-1.833 2.6-4.333 4.55-7.5 5.85v0c-4.167-0.433-7.5-1.6-10-3.5v0c-0.133-0.933-0.2-1.883-0.2-2.85zM29.8-12.35c0.1 2.967 0.65 5.283 1.65 6.95 1 1.667 2.7 2.5 5.1 2.5 2.4 0 4.617-1.017 6.65-3.05v0l0.7 0.7c-2.233 2.833-4.917 4.783-8.05 5.85v0c-3.233 0-5.767-1.027-7.6-3.08-1.833-2.047-2.75-4.813-2.75-8.3 0-3.48 1.083-6.753 3.25-9.82 2.167-3.067 4.933-5.083 8.3-6.05v0c2.433 0 5.183 0.25 8.25 0.75v0l-0.05 1.1c-0.633 0-1.233 0.117-1.8 0.35v0c-0.633 1.5-1.05 3.283-1.25 5.35v0h-1.25c-0.267-1.133-0.4-2.3-0.4-3.5v0c-1.267-0.633-2.767-0.95-4.5-0.95-1.733 0-3.167 0.467-4.3 1.4v0c-1.133 2.067-1.783 4.533-1.95 7.4v0c1.4 0.233 2.9 0.35 4.5 0.35v0c2.767 0 4.433-0.583 5-1.75v0l1.05 0.15c-0.3 1-0.45 1.983-0.45 2.95 0 0.967 0.117 2.15 0.35 3.55v0l-1.2 0.2c-0.367-1-0.633-2.033-0.8-3.1v0c-1.333-0.133-2.66-0.2-3.98-0.2-1.313 0-2.803 0.083-4.47 0.25zM52.2-12.35c0.1 2.967 0.65 5.283 1.65 6.95 1 1.667 2.7 2.5 5.1 2.5 2.4 0 4.617-1.017 6.65-3.05v0l0.7 0.7c-2.233 2.833-4.917 4.783-8.05 5.85v0c-3.233 0-5.767-1.027-7.6-3.08-1.833-2.047-2.75-4.813-2.75-8.3 0-3.48 1.083-6.753 3.25-9.82 2.167-3.067 4.933-5.083 8.3-6.05v0c2.433 0 5.183 0.25 8.25 0.75v0l-0.05 1.1c-0.633 0-1.233 0.117-1.8 0.35v0c-0.633 1.5-1.05 3.283-1.25 5.35v0h-1.25c-0.267-1.133-0.4-2.3-0.4-3.5v0c-1.267-0.633-2.767-0.95-4.5-0.95-1.733 0-3.167 0.467-4.3 1.4v0c-1.133 2.067-1.783 4.533-1.95 7.4v0c1.4 0.233 2.9 0.35 4.5 0.35v0c2.767 0 4.433-0.583 5-1.75v0l1.05 0.15c-0.3 1-0.45 1.983-0.45 2.95 0 0.967 0.117 2.15 0.35 3.55v0l-1.2 0.2c-0.367-1-0.633-2.033-0.8-3.1v0c-1.333-0.133-2.657-0.2-3.97-0.2-1.32 0-2.813 0.083-4.48 0.25zM77.65-14.15v0 2.05c3.4-3.6 5.61-6.193 6.63-7.78 1.013-1.58 1.52-2.813 1.52-3.7 0-0.88-0.25-1.503-0.75-1.87v0l0.25-0.85c0.733 0.167 1.793 0.25 3.18 0.25 1.38 0 3.07-0.133 5.07-0.4v0l0.2 1.3c-0.767 0.267-1.883 0.533-3.35 0.8v0c-0.3 2.267-2.233 5.083-5.8 8.45v0l6.6 14.2c1.4 0.233 2.5 0.5 3.3 0.8v0l-0.2 1.3c-1.233-0.267-2.84-0.4-4.82-0.4-1.987 0-3.38 0.083-4.18 0.25v0l-0.25-0.85c0.467-0.467 0.7-1.167 0.7-2.1v0c0-2.233-1.317-5.867-3.95-10.9v0c-0.667 0.567-2.05 1.717-4.15 3.45v0c0.1 4.067 0.25 6.9 0.45 8.5v0c1.5 0.167 2.883 0.417 4.15 0.75v0l-0.15 1.25c-1.733-0.233-3.673-0.35-5.82-0.35-2.153 0-4.08 0.133-5.78 0.4v0l-0.2-1.3c0.933-0.3 1.983-0.55 3.15-0.75v0c0.3-2.4 0.45-5.8 0.45-10.2v0-2.35c0-4.4-0.167-7.8-0.5-10.2v0c-1.167-0.2-2.217-0.45-3.15-0.75v0l0.2-1.3c1.7 0.267 3.627 0.4 5.78 0.4 2.147 0 4.087-0.117 5.82-0.35v0l0.15 1.25c-1.267 0.333-2.65 0.583-4.15 0.75v0c-0.267 1.8-0.4 5.217-0.4 10.25zM100.85-12.35c0.1 2.967 0.65 5.283 1.65 6.95 1 1.667 2.7 2.5 5.1 2.5 2.4 0 4.617-1.017 6.65-3.05v0l0.7 0.7c-2.233 2.833-4.917 4.783-8.05 5.85v0c-3.233 0-5.767-1.027-7.6-3.08-1.833-2.047-2.75-4.813-2.75-8.3 0-3.48 1.083-6.753 3.25-9.82 2.167-3.067 4.933-5.083 8.3-6.05v0c2.433 0 5.183 0.25 8.25 0.75v0l-0.05 1.1c-0.633 0-1.233 0.117-1.8 0.35v0c-0.633 1.5-1.05 3.283-1.25 5.35v0h-1.25c-0.267-1.133-0.4-2.3-0.4-3.5v0c-1.267-0.633-2.767-0.95-4.5-0.95-1.733 0-3.167 0.467-4.3 1.4v0c-1.133 2.067-1.783 4.533-1.95 7.4v0c1.4 0.233 2.9 0.35 4.5 0.35v0c2.767 0 4.433-0.583 5-1.75v0l1.05 0.15c-0.3 1-0.45 1.983-0.45 2.95 0 0.967 0.117 2.15 0.35 3.55v0l-1.2 0.2c-0.367-1-0.633-2.033-0.8-3.1v0c-1.333-0.133-2.657-0.2-3.97-0.2-1.32 0-2.813 0.083-4.48 0.25zM118.85-24.95v-1l11.5-0.35c3 0 5.25 0.44 6.75 1.32 1.5 0.887 2.25 2.497 2.25 4.83v0c0 1.6-0.49 3.017-1.47 4.25-0.987 1.233-2.28 2.15-3.88 2.75v0l5.6 11.45c1.133 0.2 2.2 0.433 3.2 0.7v0l-0.2 1.35c-1.4-0.233-2.973-0.35-4.72-0.35-1.753 0-3.13 0.083-4.13 0.25v0l-0.2-0.8c0.433-0.433 0.65-1.15 0.65-2.15v0c0-2.033-1.167-5.3-3.5-9.8v0c-0.7-0.133-1.517-0.2-2.45-0.2v0l0.1-1.45h0.5c3.933 0 5.9-1.8 5.9-5.4v0c0-3.333-1.683-5-5.05-5v0c-1.133 0-2.15 0.183-3.05 0.55v0c-0.233 2.2-0.35 5.967-0.35 11.3 0 5.333 0.15 9.017 0.45 11.05v0c1.467 0.167 2.833 0.417 4.1 0.75v0l-0.15 1.25c-1.733-0.233-3.673-0.35-5.82-0.35-2.153 0-4.08 0.133-5.78 0.4v0l-0.2-1.3c0.933-0.3 1.983-0.55 3.15-0.75v0c0.333-2.5 0.5-6.393 0.5-11.68 0-5.28-0.15-8.937-0.45-10.97v0c-1.3-0.433-2.383-0.65-3.25-0.65z" fill="#000000" fill-rule="nonzero" stroke="none" stroke-width="1" stroke-linecap="butt" stroke-linejoin="miter" stroke-miterlimit="10" stroke-dasharray="" stroke-dashoffset="0" font-family="none" font-weight="none" font-size="none" text-anchor="none" style="mix-blend-mode: normal" data-fill-palette-color="primary" opacity="1"></path></g></svg></g></svg></g><g transform="matrix(1,0,0,1,0,220.55186162900358)"><svg viewBox="0 0 197.38133758501783 15.971703967928931" height="15.971703967928931" width="197.38133758501783"><g transform="matrix(1,0,0,1,0,0)"><svg width="197.38133758501783" viewBox="0.75 -31.7 463.98 37.55" height="15.971703967928931" data-palette-color="#b7feae"><path d="M9.45 0L6.3 0 6.3-12.95 0.75-29.55 4-29.55 7.8-17.4 8-16.4 8.2-17.4 12.3-29.55 15.3-29.55 9.45-12.8 9.45 0ZM22.9 0.35L22.9 0.35Q20.6 0.35 19.07-0.28 17.55-0.9 16.82-2.5 16.1-4.1 16.1-6.9L16.1-6.9 16.1-18.45Q16.1-22.05 17.67-23.6 19.25-25.15 22.9-25.15L22.9-25.15Q26.55-25.15 28.12-23.65 29.7-22.15 29.7-18.45L29.7-18.45 29.7-6.9Q29.7-4.1 29-2.53 28.3-0.95 26.8-0.3 25.3 0.35 22.9 0.35ZM22.9-1.6L22.9-1.6Q24.9-1.6 25.75-2.6 26.6-3.6 26.6-6.25L26.6-6.25 26.6-18.6Q26.6-21.05 25.8-22.13 25-23.2 22.9-23.2L22.9-23.2Q20.95-23.2 20.07-22.18 19.2-21.15 19.2-18.6L19.2-18.6 19.2-6.25Q19.2-3.65 20.07-2.63 20.95-1.6 22.9-1.6ZM39.8 0.4L39.8 0.4Q37.2 0.4 35.95-0.53 34.7-1.45 34.35-2.95 34-4.45 34-6.15L34-6.15 34-24.75 37.1-24.75 37.1-6.55Q37.1-5.45 37.22-4.38 37.35-3.3 38.15-2.63 38.95-1.95 40.8-1.95L40.8-1.95Q42.1-1.95 42.85-2.4 43.6-2.85 44-3.48 44.4-4.1 44.5-4.6L44.5-4.6 44.5-24.75 47.6-24.75 47.6 0 44.95 0 44.7-2.7Q44.3-1.5 43.07-0.55 41.85 0.4 39.8 0.4ZM55.99 0L52.89 0 52.89-24.75 55.49-24.75 55.84-22.1Q56.39-23.5 57.64-24.1 58.89-24.7 60.14-24.85L60.14-24.85Q61.54-25.15 62.84-24.9L62.84-24.9 62.84-22.45Q62.64-22.5 62.14-22.55 61.64-22.6 61.07-22.6 60.49-22.6 59.99-22.4L59.99-22.4Q58.29-22.2 57.14-21.18 55.99-20.15 55.99-18.4L55.99-18.4 55.99 0ZM81.49 0L77.79 0 73.14-29.55 76.29-29.55 80.04-4.35 84.59-29.55 87.14-29.55 91.59-4.4 95.39-29.55 98.59-29.55 93.89 0 90.29 0 85.89-22.45 81.49 0ZM106.09 0.35L106.09 0.35Q104.94 0.35 103.76 0.03 102.59-0.3 101.76-1.48 100.94-2.65 100.94-5.15L100.94-5.15 100.94-7.55Q100.94-10.05 102.46-11.58 103.99-13.1 106.64-14.3L106.64-14.3Q108.34-15.15 109.41-15.8 110.49-16.45 111.04-17.25 111.59-18.05 111.59-19.4L111.59-19.4 111.59-20.45Q111.59-21.65 111.09-22.3 110.59-22.95 109.76-23.2 108.94-23.45 108.04-23.45L108.04-23.45Q105.79-23.45 105.09-22.23 104.39-21 104.39-18.6L104.39-18.6 104.39-16.5 101.54-16.5 101.54-18.9Q101.54-20.75 102.04-22.18 102.54-23.6 103.94-24.43 105.34-25.25 108.04-25.25L108.04-25.25Q110.89-25.25 112.31-24.6 113.74-23.95 114.21-22.75 114.69-21.55 114.69-19.9L114.69-19.9 114.69 0 111.64 0 111.59-3.1Q110.99-1.4 109.44-0.53 107.89 0.35 106.09 0.35ZM107.24-1.75L107.24-1.75Q109.49-1.75 110.51-3.35 111.54-4.95 111.54-7.6L111.54-7.6 111.54-15.5Q111.04-14.7 109.89-14.05 108.74-13.4 107.54-12.75L107.54-12.75Q105.84-11.75 104.91-10.68 103.99-9.6 103.99-7.7L103.99-7.7 103.99-5.75Q103.99-3.95 104.49-3.1 104.99-2.25 105.74-2 106.49-1.75 107.24-1.75ZM120.33 5.85L120.33 5.85Q119.28 5.85 118.46 5.7 117.63 5.55 117.18 5.45L117.18 5.45 117.18 3.6Q117.33 3.7 117.86 3.8 118.38 3.9 119.08 3.9L119.08 3.9Q119.83 3.9 120.76 3.65 121.68 3.4 122.28 2.25L122.28 2.25Q122.58 1.75 122.96 1.1 123.33 0.45 123.13-0.4L123.13-0.4 117.43-24.75 120.63-24.75 125.18-3.15 125.13-3.15 129.53-24.75 132.48-24.75 127.08-0.95Q126.33 2.5 124.73 4.17 123.13 5.85 120.33 5.85ZM152.08 0.6L152.08 0.6Q149.93 0.6 148.28 0.1 146.63-0.4 145.65-1.98 144.68-3.55 144.68-6.75L144.68-6.75 144.68-23.4Q144.68-26.2 145.65-27.6 146.63-29 148.33-29.48 150.03-29.95 152.18-29.95L152.18-29.95Q154.33-29.95 156-29.45 157.68-28.95 158.65-27.55 159.63-26.15 159.63-23.4L159.63-23.4 159.63-6.8Q159.63-3.55 158.65-1.98 157.68-0.4 156 0.1 154.33 0.6 152.08 0.6ZM152.13-1.35L152.13-1.35Q153.43-1.35 154.4-1.68 155.38-2 155.93-2.98 156.48-3.95 156.48-5.9L156.48-5.9 156.48-23.4Q156.48-25.35 155.93-26.33 155.38-27.3 154.38-27.63 153.38-27.95 152.13-27.95L152.13-27.95Q150.83-27.95 149.85-27.63 148.88-27.3 148.33-26.33 147.78-25.35 147.78-23.4L147.78-23.4 147.78-5.9Q147.78-3.95 148.33-2.98 148.88-2 149.85-1.68 150.83-1.35 152.13-1.35ZM170.43 0.4L170.43 0.4Q167.83 0.4 166.58-0.53 165.33-1.45 164.98-2.95 164.63-4.45 164.63-6.15L164.63-6.15 164.63-24.75 167.73-24.75 167.73-6.55Q167.73-5.45 167.85-4.38 167.98-3.3 168.78-2.63 169.58-1.95 171.43-1.95L171.43-1.95Q172.73-1.95 173.48-2.4 174.23-2.85 174.63-3.48 175.03-4.1 175.13-4.6L175.13-4.6 175.13-24.75 178.23-24.75 178.23 0 175.58 0 175.33-2.7Q174.93-1.5 173.7-0.55 172.48 0.4 170.43 0.4ZM188.87 0.05L188.87 0.05Q187.77 0.05 186.87-0.2 185.97-0.45 185.32-1.03 184.67-1.6 184.32-2.53 183.97-3.45 183.97-4.85L183.97-4.85 183.97-22.8 181.77-22.8 181.77-24.4 184.17-24.75 184.72-29.4 187.07-29.4 187.07-24.75 192.42-24.75 192.42-22.8 187.07-22.8 187.07-5.4Q187.07-4 187.57-3.05 188.07-2.1 189.77-2.1L189.77-2.1Q190.47-2.1 191.27-2.18 192.07-2.25 192.42-2.25L192.42-2.25 192.42-0.25Q192.02-0.25 191.02-0.1 190.02 0.05 188.87 0.05ZM211.07 0.35L211.07 0.35Q208.77 0.35 207.24-0.28 205.72-0.9 204.99-2.5 204.27-4.1 204.27-6.9L204.27-6.9 204.27-18.45Q204.27-22.05 205.84-23.6 207.42-25.15 211.07-25.15L211.07-25.15Q214.72-25.15 216.29-23.65 217.87-22.15 217.87-18.45L217.87-18.45 217.87-6.9Q217.87-4.1 217.17-2.53 216.47-0.95 214.97-0.3 213.47 0.35 211.07 0.35ZM211.07-1.6L211.07-1.6Q213.07-1.6 213.92-2.6 214.77-3.6 214.77-6.25L214.77-6.25 214.77-18.6Q214.77-21.05 213.97-22.13 213.17-23.2 211.07-23.2L211.07-23.2Q209.12-23.2 208.24-22.18 207.37-21.15 207.37-18.6L207.37-18.6 207.37-6.25Q207.37-3.65 208.24-2.63 209.12-1.6 211.07-1.6ZM225.62 0L222.57 0 222.57-21.85 221.02-21.85 221.02-23.8 222.57-23.8 222.57-26.8Q222.57-28.15 222.89-29.1 223.22-30.05 223.82-30.63 224.42-31.2 225.24-31.45 226.07-31.7 227.07-31.7L227.07-31.7Q227.87-31.7 228.69-31.68 229.52-31.65 230.22-31.58 230.92-31.5 231.22-31.5L231.22-31.5 231.22-29.75Q230.67-29.85 229.92-29.93 229.17-30 228.12-30L228.12-30Q226.87-30 226.24-29.28 225.62-28.55 225.62-26.7L225.62-26.7 225.62-23.8 231.22-23.8 231.22-21.85 225.62-21.85 225.62 0ZM247.96 0.05L247.96 0.05Q246.86 0.05 245.96-0.2 245.06-0.45 244.41-1.03 243.76-1.6 243.41-2.53 243.06-3.45 243.06-4.85L243.06-4.85 243.06-22.8 240.86-22.8 240.86-24.4 243.26-24.75 243.81-29.4 246.16-29.4 246.16-24.75 251.51-24.75 251.51-22.8 246.16-22.8 246.16-5.4Q246.16-4 246.66-3.05 247.16-2.1 248.86-2.1L248.86-2.1Q249.56-2.1 250.36-2.18 251.16-2.25 251.51-2.25L251.51-2.25 251.51-0.25Q251.11-0.25 250.11-0.1 249.11 0.05 247.96 0.05ZM257.81 0L254.71 0 254.71-31.5 257.66-31.5 257.66-22.7Q258.26-23.85 259.46-24.53 260.66-25.2 262.51-25.2L262.51-25.2Q265.16-25.2 266.38-24.28 267.61-23.35 267.96-21.88 268.31-20.4 268.31-18.65L268.31-18.65 268.31 0 265.21 0 265.21-18.2Q265.21-18.95 265.16-19.78 265.11-20.6 264.78-21.3 264.46-22 263.71-22.48 262.96-22.95 261.51-22.95L261.51-22.95Q260.21-22.95 259.38-22.53 258.56-22.1 258.18-21.55 257.81-21 257.81-20.6L257.81-20.6 257.81 0ZM279.61 0.45L279.61 0.45Q277.11 0.45 275.56-0.13 274.01-0.7 273.31-2.25 272.61-3.8 272.61-6.75L272.61-6.75 272.61-19.1Q272.61-22.6 274.18-23.9 275.76-25.2 279.41-25.2L279.41-25.2Q282.96-25.2 284.53-23.9 286.11-22.6 286.11-19.1L286.11-19.1 286.11-12.7 275.71-12.7 275.71-5.7Q275.71-3.3 276.46-2.38 277.21-1.45 279.51-1.45L279.51-1.45Q281.61-1.45 282.31-2.35 283.01-3.25 283.01-5.7L283.01-5.7 283.01-8.9 286.11-8.9 286.11-6.8Q286.11-3.9 285.41-2.33 284.71-0.75 283.28-0.15 281.86 0.45 279.61 0.45ZM275.71-19.2L275.71-14.3 283.01-14.3 283.01-19.2Q283.01-21.3 282.31-22.25 281.61-23.2 279.41-23.2L279.41-23.2Q277.21-23.2 276.46-22.25 275.71-21.3 275.71-19.2L275.71-19.2ZM303.55 0L300.3 0 300.3-29.55 309.6-29.55Q312.1-29.55 313.65-28.38 315.2-27.2 315.2-24.65L315.2-24.65 315.2-19.85Q315.2-17.3 313.68-15.9 312.15-14.5 309.55-14.4L309.55-14.4 309.55-14.45Q311.15-14.35 311.95-13.33 312.75-12.3 313.35-10.15L313.35-10.15 316.4 0 312.9 0 310.2-9.95Q309.8-11.35 309.18-12.48 308.55-13.6 307.15-13.6L307.15-13.6 303.55-13.6 303.55 0ZM303.55-27.7L303.55-15.85 307.95-15.85Q310.25-15.85 311.18-16.93 312.1-18 312.1-20.1L312.1-20.1 312.1-24.1Q312.1-25.95 311.23-26.83 310.35-27.7 308.55-27.7L308.55-27.7 303.55-27.7ZM325 0.35L325 0.35Q323.85 0.35 322.67 0.03 321.5-0.3 320.67-1.48 319.85-2.65 319.85-5.15L319.85-5.15 319.85-7.55Q319.85-10.05 321.37-11.58 322.9-13.1 325.55-14.3L325.55-14.3Q327.25-15.15 328.32-15.8 329.4-16.45 329.95-17.25 330.5-18.05 330.5-19.4L330.5-19.4 330.5-20.45Q330.5-21.65 330-22.3 329.5-22.95 328.67-23.2 327.85-23.45 326.95-23.45L326.95-23.45Q324.7-23.45 324-22.23 323.3-21 323.3-18.6L323.3-18.6 323.3-16.5 320.45-16.5 320.45-18.9Q320.45-20.75 320.95-22.18 321.45-23.6 322.85-24.43 324.25-25.25 326.95-25.25L326.95-25.25Q329.8-25.25 331.22-24.6 332.65-23.95 333.12-22.75 333.6-21.55 333.6-19.9L333.6-19.9 333.6 0 330.55 0 330.5-3.1Q329.9-1.4 328.35-0.53 326.8 0.35 325 0.35ZM326.15-1.75L326.15-1.75Q328.4-1.75 329.42-3.35 330.45-4.95 330.45-7.6L330.45-7.6 330.45-15.5Q329.95-14.7 328.8-14.05 327.65-13.4 326.45-12.75L326.45-12.75Q324.75-11.75 323.82-10.68 322.9-9.6 322.9-7.7L322.9-7.7 322.9-5.75Q322.9-3.95 323.4-3.1 323.9-2.25 324.65-2 325.4-1.75 326.15-1.75ZM345.8 0.35L345.8 0.35Q343.45 0.35 342.32-0.48 341.2-1.3 340.8-2.3L340.8-2.3 340.65 0 338.45 0 338.45-31.5 341.5-31.5 341.5-22.7Q342.1-23.95 343.27-24.58 344.45-25.2 346.25-25.2L346.25-25.2Q348.15-25.2 349.45-24.6 350.75-24 351.4-22.65 352.05-21.3 352.05-18.9L352.05-18.9 352.05-6.65Q352.05-4.6 351.67-3.25 351.3-1.9 350.55-1.1 349.8-0.3 348.62 0.03 347.45 0.35 345.8 0.35ZM345.25-1.85L345.25-1.85Q346.65-1.85 347.45-2.25 348.25-2.65 348.6-3.63 348.95-4.6 348.95-6.35L348.95-6.35 348.95-18.8Q348.95-21.3 348.12-22.2 347.3-23.1 345.25-23.1L345.25-23.1Q343.15-23.1 342.35-22.05 341.55-21 341.55-19L341.55-19 341.55-6.65Q341.55-4.1 342.42-2.98 343.3-1.85 345.25-1.85ZM364.04 0.35L364.04 0.35Q361.69 0.35 360.57-0.48 359.44-1.3 359.04-2.3L359.04-2.3 358.89 0 356.69 0 356.69-31.5 359.74-31.5 359.74-22.7Q360.34-23.95 361.52-24.58 362.69-25.2 364.49-25.2L364.49-25.2Q366.39-25.2 367.69-24.6 368.99-24 369.64-22.65 370.29-21.3 370.29-18.9L370.29-18.9 370.29-6.65Q370.29-4.6 369.92-3.25 369.54-1.9 368.79-1.1 368.04-0.3 366.87 0.03 365.69 0.35 364.04 0.35ZM363.49-1.85L363.49-1.85Q364.89-1.85 365.69-2.25 366.49-2.65 366.84-3.63 367.19-4.6 367.19-6.35L367.19-6.35 367.19-18.8Q367.19-21.3 366.37-22.2 365.54-23.1 363.49-23.1L363.49-23.1Q361.39-23.1 360.59-22.05 359.79-21 359.79-19L359.79-19 359.79-6.65Q359.79-4.1 360.67-2.98 361.54-1.85 363.49-1.85ZM377.99 0L374.94 0 374.94-24.75 377.99-24.75 377.99 0ZM376.49-27.8L376.49-27.8Q375.74-27.8 375.22-28.33 374.69-28.85 374.69-29.55L374.69-29.55Q374.69-30.3 375.22-30.78 375.74-31.25 376.49-31.25L376.49-31.25Q377.19-31.25 377.74-30.78 378.29-30.3 378.29-29.55L378.29-29.55Q378.29-28.85 377.74-28.33 377.19-27.8 376.49-27.8ZM388.64 0.05L388.64 0.05Q387.54 0.05 386.64-0.2 385.74-0.45 385.09-1.03 384.44-1.6 384.09-2.53 383.74-3.45 383.74-4.85L383.74-4.85 383.74-22.8 381.54-22.8 381.54-24.4 383.94-24.75 384.49-29.4 386.84-29.4 386.84-24.75 392.19-24.75 392.19-22.8 386.84-22.8 386.84-5.4Q386.84-4 387.34-3.05 387.84-2.1 389.54-2.1L389.54-2.1Q390.24-2.1 391.04-2.18 391.84-2.25 392.19-2.25L392.19-2.25 392.19-0.25Q391.79-0.25 390.79-0.1 389.79 0.05 388.64 0.05ZM408.28 0L405.13 0 405.13-29.55 408.28-29.55 408.28-16.65 416.93-16.65 416.93-29.55 420.03-29.55 420.03 0 416.93 0 416.93-14.25 408.28-14.25 408.28 0ZM432.03 0.35L432.03 0.35Q429.73 0.35 428.21-0.28 426.68-0.9 425.96-2.5 425.23-4.1 425.23-6.9L425.23-6.9 425.23-18.45Q425.23-22.05 426.81-23.6 428.38-25.15 432.03-25.15L432.03-25.15Q435.68-25.15 437.26-23.65 438.83-22.15 438.83-18.45L438.83-18.45 438.83-6.9Q438.83-4.1 438.13-2.53 437.43-0.95 435.93-0.3 434.43 0.35 432.03 0.35ZM432.03-1.6L432.03-1.6Q434.03-1.6 434.88-2.6 435.73-3.6 435.73-6.25L435.73-6.25 435.73-18.6Q435.73-21.05 434.93-22.13 434.13-23.2 432.03-23.2L432.03-23.2Q430.08-23.2 429.21-22.18 428.33-21.15 428.33-18.6L428.33-18.6 428.33-6.25Q428.33-3.65 429.21-2.63 430.08-1.6 432.03-1.6ZM446.53 0L443.48 0 443.48-31.7 446.53-31.7 446.53 0ZM458.23 0.45L458.23 0.45Q455.73 0.45 454.18-0.13 452.63-0.7 451.93-2.25 451.23-3.8 451.23-6.75L451.23-6.75 451.23-19.1Q451.23-22.6 452.8-23.9 454.38-25.2 458.03-25.2L458.03-25.2Q461.58-25.2 463.15-23.9 464.73-22.6 464.73-19.1L464.73-19.1 464.73-12.7 454.33-12.7 454.33-5.7Q454.33-3.3 455.08-2.38 455.83-1.45 458.13-1.45L458.13-1.45Q460.23-1.45 460.93-2.35 461.63-3.25 461.63-5.7L461.63-5.7 461.63-8.9 464.73-8.9 464.73-6.8Q464.73-3.9 464.03-2.33 463.33-0.75 461.9-0.15 460.48 0.45 458.23 0.45ZM454.33-19.2L454.33-14.3 461.63-14.3 461.63-19.2Q461.63-21.3 460.93-22.25 460.23-23.2 458.03-23.2L458.03-23.2Q455.83-23.2 455.08-22.25 454.33-21.3 454.33-19.2L454.33-19.2Z" opacity="1" transform="matrix(1,0,0,1,0,0)" fill="#000000" class="slogan-text-1" data-fill-palette-color="secondary" id="text-1"></path></svg></g></svg></g></svg></g></svg></g><g transform="matrix(1,0,0,1,0,0.5913089139923215)"><svg viewBox="0 0 183.6146958396437 236.5235655969325" height="236.5235655969325" width="183.6146958396437"><g><svg xmlns="http://www.w3.org/2000/svg" xmlns:xlink="http://www.w3.org/1999/xlink" version="1.1" x="0" y="0" viewBox="12.083057223246568 0.9393903103078058 76.16570994614959 98.11298169955897" enable-background="new 0 0 100 100" xml:space="preserve" height="236.5235655969325" width="183.6146958396437" class="icon-icon-0" data-fill-palette-color="accent" id="icon-0"><g fill="#cafbff" data-fill-palette-color="accent"><path d="M88.008 81.757C88.77 83.614 87.427 80.202 88.008 81.757" fill="#000000" data-fill-palette-color="accent"></path><path d="M84.1 80.426C87.034 78.623 84.014 75.702 81.564 78.207 81.495 77.168 81.714 75.206 80.835 74.436 79.203 73.45 77.571 75.704 77.835 77.183 75.809 68.266 68.75 53.919 58.588 52.311 63.548 44.257 55.299 31.97 48.905 26.943 55.569 24.674 58.023 18.285 60.97 12.53 61.728 11.049 67.231 3.709 65.407 1.955 61.951-1.371 54.545 4.337 52.197 6.692 47.236 11.667 45.183 19.325 41.861 25.369 41.295 16.89 37.689 11.877 29.935 8.63 28.437 8.004 11.877 0.979 12.085 5.313 12.285 9.481 18.544 13.678 21.564 15.909 24.468 18.055 27.408 20.152 30.336 22.264 31.066 22.79 34.217 25.879 35.082 25.82 31.769 27.616 27.558 30.535 25.878 34.017 23.024 39.932 23.967 48.186 28.144 53.204 20.556 58.584 20.914 67.832 22.462 76.045 23.31 80.538 24.496 84.973 25.121 89.506 25.566 92.737 24.513 95.465 28.645 95.485 31.758 95.502 28.007 89.68 30.96 89.887 33.74 90.08 37.332 89.684 39.883 90.972 43.147 92.62 37.976 96.202 43.011 96.592 45.628 96.795 44.643 94.505 45.864 93.189 47.807 91.093 52.008 93.505 53.818 94.566 50.87 95.571 50.295 98.864 53.912 99.041 55.492 99.117 57.088 98.798 58.631 98.503 60.913 98.063 62.634 98.451 64.924 98.546 68.091 98.673 71.344 97.954 73.831 95.901A11.3 11.3 0 0 0 76.368 92.893C76.722 92.287 78.787 90.472 78.818 89.532 79.374 91.374 82.613 91.407 82.135 89.152 83.471 91.429 85.949 90.026 84.744 87.704 87.229 90.285 88.505 84.586 85.281 83.849 86.557 83.906 88.765 83.609 88.007 81.758 87.422 80.188 85.4 80.5 84.1 80.426M30.251 38.123C30.253 38.112 30.253 38.111 30.251 38.123M35.127 39.063C34.766 42.235 29.847 41.677 30.209 38.503 30.568 35.332 35.485 35.891 35.127 39.063M37.538 48.162L35.907 45.032 41.001 45.139zM46.92 39.036C46.561 42.209 41.638 41.652 42 38.479 42.36 35.307 47.279 35.864 46.92 39.036" fill="#000000" data-fill-palette-color="accent"></path><circle cx="31.822" cy="38.159" r="1.1" fill="#000000" data-fill-palette-color="accent"></circle><circle cx="43.572" cy="38.159" r="1.1" fill="#000000" data-fill-palette-color="accent"></circle></g></svg></g></svg></g></svg></g><defs></defs></svg><rect width="395.52" height="164.44957183353858" fill="none" stroke="none" visibility="hidden"></rect></g></svg></g></svg>