<svg xmlns="http://www.w3.org/2000/svg" version="1.1" xmlns:xlink="http://www.w3.org/1999/xlink" xmlns:svgjs="http://svgjs.dev/svgjs" width="2000" height="1500" viewBox="0 0 2000 1500"><rect width="2000" height="1500" fill="#000000"></rect><g transform="matrix(0.44603033006244425,0,0,0.44603033006244425,552.580232658313,250)"><svg viewBox="0 0 321 360" data-background-color="#a44a0c" preserveAspectRatio="xMidYMid meet" height="2242" width="2000" xmlns="http://www.w3.org/2000/svg" xmlns:xlink="http://www.w3.org/1999/xlink"><g id="tight-bounds" transform="matrix(1,0,0,1,0.5000234999999975,0)"><svg viewBox="0 0 320 360" height="360" width="320"><g><svg></svg></g><g><svg viewBox="0 0 320 360" height="360" width="320"><g><path transform="translate(-74.99272,-51.79039) scale(4.65793,4.65793)" d="M20.6 59.9l0.8 1-0.4-1.3c-0.1-0.6-0.8 0.1-0.4 0.3M21.5 59.3c0.3 0.5 0.6 1 0.6 1.5 0 0.7 0.6 1 1.1 1.2-0.7-0.8-1.1-3-1.7-2.7M59.9 16.9c1.7 0 3.3-0.2 5.1 0.2 4.4 1.1 8.1 3.3 10.6 6.4l7 11.2c0.3 2.8 0.9 5.9 0.8 9.3 0.7 0 0.6-1 1.4-1.2-0.8 2-1.2 4.5-1.4 7.4-0.5-1.6 0-4 0.1-5.3-0.7 1.1-1.1 0.3-1.1-0.2 0.1-0.8-0.3-0.7-0.6-1-1.1-1-1.8-2.1-2.6-3.8 0.5-1.3 0.6-3.2-1-4.2-0.5-0.3-1.1-0.8-1.4-1.6-0.4-1.1-1.1-2.4-0.9-4.1 0.1-0.5-1.5 1.1-2.4 0.4-3.9-2.7-7.8-5.8-12.5-8.4-2.5 0-4.3-0.9-5.2-2-0.8-1-0.2-2.3 1-2.4 0.7 0 1.5-0.2 2.1 0.2 0.1-0.4 0.5-0.9 1-0.9M50 14.6l0.2 0.1c1 0.2 1.5 1.6 2.6 1.1 0 0.7 0.1 1.4-0.1 1.9-0.3 0.8-1.2 0.8-1.9 0.8-6.7-0.4-10.6 2.4-14.7 4.8-1.1 0.7-2.3 1.2-3.2 2.1-4.3 4-9 7.7-10.1 15.1l-0.9 8.2c-0.1 0.9-1.1 1.8-0.9 2.9l0.7 4.9c-0.7-0.7-1.1 0.2-0.9 0.6 0.1 0.3 0.5 1.3 1.1 0.4 0.8 1.5 1.6 4.4 2.7 5.7 3.4 4 7.8 7.6 11.4 11.2 0.9-0.2 1.6-0.2 1.8-0.8 0.3 0.6-0.3 1.2-0.8 1.3 1.6 1 3.4 1.9 5.8 2.1 3.1 0.2 6 0.7 8.7 1.4 1.4-0.4 2.8-0.6 4.3-0.7 0.5 0 0.8-0.8 1.4-1l0.1-1c0.6 0.9 0.5-0.3 0.1-0.9 0.7 0.6 0.9 1.1 1.2 1.5 0-0.3 0.8-1.4 0.8-0.1l0.2-1.3c0.3-0.2 0.4 1.1 0.7 0.2 0.3-0.9 0.9-0.2 1.5-0.5-0.2 0.4-0.1 1.2 0.6 0.7l0.8-0.7c0.5 1.2 1.3 0.7 1.7 0.5 4.4-2.8 8.8-6.1 13-9.4l-0.1 1.3 0.5-1.6c0.5 0.5 0.9 0.1 1.1-0.2 0.6-1 1.4-2 2.7-2.9-1.6 4.3-3.5 7.7-5.9 10.5l-1 1.2c0 0.7-0.2 1.6-1 1.7-0.4 0.1-1.2-0.2-1.8 0.4-0.3 0.4 0.7 1.2-0.1 0.6-0.7-0.5-1.4 0-2.2 0.2-0.6 0.2 0.4 0.8 0.6 1.2 0.2 0.4 0.4 0.8 0.3 1.3l-1.1-1.2c-1.3 0.7-2.1 2-3.2 3-0.5 0.4-0.3 1.1-0.3 1.7-0.7 0-1.5-0.2-1.9 0.2-0.3 0.4-0.2 1-0.2 1.6-1-0.1-1.1-1.6-2-1.3-0.9 0.2-1.9 0.3-2.7 0.8 0.6 1.2-1 0.5-0.8 0.7-1.5-0.9-2.8-1.6-4.4-1-3.4-1.1-7.6-0.6-10.7-0.2 0-0.5 0.1-1-0.1-1.1-0.2 0.5-0.8 0.3-0.7 0.3-1.9-1.3-3.8-2.1-5.8-3.2-1.8 0.2-3.5-0.7-4-1.2-1.4-1.3-3-0.6-4.3-0.9-2.8-0.7-3.8-3.6-4.1-5.6-0.2-1-1-1.4-1.3-1.3-1.3-4.2-3.3-8-4.9-11.9-0.4-1-0.3-2-0.3-3.1 0.5 0.2 1 0.1 0.9-0.6-0.5-3.3-1.7-5.8-3-8.2 0.7-3.4 0.8-7.4 2.4-10.4 1.4-2.7 4-4.1 5.8-6.4 0.6-0.8 0.6-1.9 1.2-2.6 2-2 4-4.1 6.2-5.9 1-0.8 2.2 0 3.7-0.3 0.5-1.8 2.5-3.4 4.4-2.9 0.8 0.2 2.4-1.9 2.9-2.1 0.8-0.3 0.4 0.8 0.4 1.5 1.9-1.5 4.5-2.3 6.9-3.2" fill="#ffffff" fill-rule="nonzero" stroke="none" stroke-width="1" stroke-linecap="butt" stroke-linejoin="miter" stroke-miterlimit="10" stroke-dasharray="" stroke-dashoffset="0" font-family="none" font-weight="none" font-size="none" text-anchor="none" style="mix-blend-mode: normal" data-fill-palette-color="tertiary"></path></g><g transform="matrix(1,0,0,1,64,129.3473351445079)"><svg viewBox="0 0 192 101.30532971098418" height="101.30532971098418" width="192"><g><svg viewBox="0 0 192 101.30532971098418" height="101.30532971098418" width="192"><g><svg viewBox="0 0 192.00000000000003 101.3053297109842" height="101.30532971098418" width="192"><g transform="matrix(1,0,0,1,0,60.28830334441301)"><svg viewBox="0 0 192.00000000000003 41.01702636657119" height="41.01702636657119" width="192.00000000000003"><g id="textblocktransform"><svg viewBox="0 0 192.00000000000003 41.01702636657119" height="41.01702636657119" width="192.00000000000003" id="textblock"><g><svg viewBox="0 0 192.00000000000003 24.68937875751503" height="24.68937875751503" width="192.00000000000003"><g transform="matrix(1,0,0,1,0,0)"><svg width="192.00000000000003" viewBox="0.5 -38 299.37 38.5" height="24.68937875751503" data-palette-color="#e5ddc6"><path d="M16.15-31.75L16.15 0 11.65 0 11.65-31.75 0.5-31.75 0.5-35.7 27.25-35.7 27.25-31.75 16.15-31.75ZM42.05-27.3L42.05-27.3Q42.8-27.3 43.67-27.23 44.55-27.15 45.2-27L45.2-27 44.65-22.95Q44-23.1 43.22-23.2 42.45-23.3 41.75-23.3L41.75-23.3Q40.2-23.3 38.8-22.65 37.4-22 36.3-20.83 35.2-19.65 34.57-18 33.95-16.35 33.95-14.3L33.95-14.3 33.95 0 29.55 0 29.55-26.8 33.15-26.8 33.65-21.9 33.85-21.9Q34.7-23.4 35.9-24.63 37.1-25.85 38.65-26.58 40.2-27.3 42.05-27.3ZM68.2-26.8L72.6-26.8 72.6 0 69 0 68.35-3.55 68.15-3.55Q67.3-2.15 65.95-1.25 64.6-0.35 63 0.08 61.4 0.5 59.65 0.5L59.65 0.5Q56.45 0.5 54.27-0.53 52.1-1.55 51-3.7 49.9-5.85 49.9-9.25L49.9-9.25 49.9-26.8 54.35-26.8 54.35-9.55Q54.35-6.35 55.8-4.75 57.25-3.15 60.3-3.15L60.3-3.15Q63.3-3.15 65.02-4.28 66.75-5.4 67.47-7.58 68.2-9.75 68.2-12.85L68.2-12.85 68.2-26.8ZM90.04-3.1L90.04-3.1Q91.04-3.1 92.09-3.28 93.14-3.45 93.79-3.65L93.79-3.65 93.79-0.3Q93.09 0.05 91.79 0.28 90.49 0.5 89.29 0.5L89.29 0.5Q87.19 0.5 85.42-0.23 83.64-0.95 82.54-2.75 81.44-4.55 81.44-7.8L81.44-7.8 81.44-23.4 77.64-23.4 77.64-25.5 81.49-27.25 83.24-32.95 85.84-32.95 85.84-26.8 93.59-26.8 93.59-23.4 85.84-23.4 85.84-7.9Q85.84-5.45 87.02-4.28 88.19-3.1 90.04-3.1ZM103.54-38L103.54-26.85Q103.54-25.9 103.47-24.9 103.39-23.9 103.29-23.1L103.29-23.1 103.59-23.1Q104.44-24.5 105.74-25.4 107.04-26.3 108.64-26.78 110.24-27.25 111.94-27.25L111.94-27.25Q115.19-27.25 117.37-26.23 119.54-25.2 120.64-23.05 121.74-20.9 121.74-17.45L121.74-17.45 121.74 0 117.39 0 117.39-17.15Q117.39-20.4 115.94-22 114.49-23.6 111.39-23.6L111.39-23.6Q108.39-23.6 106.69-22.48 104.99-21.35 104.27-19.18 103.54-17 103.54-13.85L103.54-13.85 103.54 0 99.14 0 99.14-38 103.54-38ZM166.34-9.55L166.34-9.55Q166.34-6.35 164.79-4.13 163.24-1.9 160.36-0.7 157.49 0.5 153.59 0.5L153.59 0.5Q151.59 0.5 149.76 0.3 147.94 0.1 146.44-0.28 144.94-0.65 143.79-1.2L143.79-1.2 143.79-5.5Q145.59-4.7 148.26-4.05 150.94-3.4 153.79-3.4L153.79-3.4Q156.44-3.4 158.24-4.1 160.04-4.8 160.94-6.1 161.84-7.4 161.84-9.15L161.84-9.15Q161.84-10.9 161.09-12.1 160.34-13.3 158.51-14.33 156.69-15.35 153.44-16.5L153.44-16.5Q151.14-17.35 149.41-18.32 147.69-19.3 146.54-20.55 145.39-21.8 144.81-23.4 144.24-25 144.24-27.1L144.24-27.1Q144.24-29.95 145.69-31.98 147.14-34 149.71-35.1 152.29-36.2 155.64-36.2L155.64-36.2Q158.59-36.2 161.04-35.65 163.49-35.1 165.49-34.2L165.49-34.2 164.09-30.35Q162.24-31.15 160.06-31.7 157.89-32.25 155.54-32.25L155.54-32.25Q153.29-32.25 151.79-31.6 150.29-30.95 149.54-29.78 148.79-28.6 148.79-27.05L148.79-27.05Q148.79-25.25 149.54-24.05 150.29-22.85 151.99-21.9 153.69-20.95 156.59-19.85L156.59-19.85Q159.74-18.7 161.91-17.38 164.09-16.05 165.21-14.2 166.34-12.35 166.34-9.55ZM183.28-27.3L183.28-27.3Q186.73-27.3 189.21-25.8 191.68-24.3 193.01-21.58 194.33-18.85 194.33-15.2L194.33-15.2 194.33-12.55 175.98-12.55Q176.08-8 178.31-5.63 180.53-3.25 184.53-3.25L184.53-3.25Q187.08-3.25 189.06-3.73 191.03-4.2 193.13-5.1L193.13-5.1 193.13-1.25Q191.08-0.35 189.08 0.08 187.08 0.5 184.33 0.5L184.33 0.5Q180.53 0.5 177.61-1.05 174.68-2.6 173.06-5.68 171.43-8.75 171.43-13.2L171.43-13.2Q171.43-17.6 172.91-20.75 174.38-23.9 177.06-25.6 179.73-27.3 183.28-27.3ZM183.23-23.7L183.23-23.7Q180.08-23.7 178.26-21.68 176.43-19.65 176.08-16.05L176.08-16.05 189.73-16.05Q189.73-18.35 189.03-20.05 188.33-21.75 186.91-22.73 185.48-23.7 183.23-23.7ZM211.48-27.3L211.48-27.3Q214.93-27.3 217.41-25.8 219.88-24.3 221.2-21.58 222.53-18.85 222.53-15.2L222.53-15.2 222.53-12.55 204.18-12.55Q204.28-8 206.5-5.63 208.73-3.25 212.73-3.25L212.73-3.25Q215.28-3.25 217.25-3.73 219.23-4.2 221.33-5.1L221.33-5.1 221.33-1.25Q219.28-0.35 217.28 0.08 215.28 0.5 212.53 0.5L212.53 0.5Q208.73 0.5 205.81-1.05 202.88-2.6 201.25-5.68 199.63-8.75 199.63-13.2L199.63-13.2Q199.63-17.6 201.1-20.75 202.58-23.9 205.25-25.6 207.93-27.3 211.48-27.3ZM211.43-23.7L211.43-23.7Q208.28-23.7 206.45-21.68 204.63-19.65 204.28-16.05L204.28-16.05 217.93-16.05Q217.93-18.35 217.23-20.05 216.53-21.75 215.1-22.73 213.68-23.7 211.43-23.7ZM233.68-38L233.68-18.15Q233.68-17.35 233.6-16.05 233.53-14.75 233.48-13.8L233.48-13.8 233.68-13.8Q233.98-14.2 234.58-14.95 235.18-15.7 235.8-16.48 236.43-17.25 236.88-17.75L236.88-17.75 245.43-26.8 250.58-26.8 239.73-15.35 251.33 0 246.03 0 236.73-12.5 233.68-9.85 233.68 0 229.33 0 229.33-38 233.68-38ZM266.38-27.3L266.38-27.3Q269.82-27.3 272.3-25.8 274.77-24.3 276.1-21.58 277.42-18.85 277.42-15.2L277.42-15.2 277.42-12.55 259.07-12.55Q259.17-8 261.4-5.63 263.63-3.25 267.63-3.25L267.63-3.25Q270.17-3.25 272.15-3.73 274.13-4.2 276.22-5.1L276.22-5.1 276.22-1.25Q274.17-0.35 272.17 0.08 270.17 0.5 267.42 0.5L267.42 0.5Q263.63 0.5 260.7-1.05 257.77-2.6 256.15-5.68 254.52-8.75 254.52-13.2L254.52-13.2Q254.52-17.6 256-20.75 257.47-23.9 260.15-25.6 262.82-27.3 266.38-27.3ZM266.32-23.7L266.32-23.7Q263.17-23.7 261.35-21.68 259.52-19.65 259.17-16.05L259.17-16.05 272.82-16.05Q272.82-18.35 272.13-20.05 271.42-21.75 270-22.73 268.57-23.7 266.32-23.7ZM296.72-27.3L296.72-27.3Q297.47-27.3 298.35-27.23 299.22-27.15 299.87-27L299.87-27 299.32-22.95Q298.67-23.1 297.9-23.2 297.12-23.3 296.42-23.3L296.42-23.3Q294.87-23.3 293.47-22.65 292.07-22 290.97-20.83 289.87-19.65 289.25-18 288.62-16.35 288.62-14.3L288.62-14.3 288.62 0 284.22 0 284.22-26.8 287.82-26.8 288.32-21.9 288.52-21.9Q289.37-23.4 290.57-24.63 291.77-25.85 293.32-26.58 294.87-27.3 296.72-27.3Z" opacity="1" transform="matrix(1,0,0,1,0,0)" fill="#ffffff" class="wordmark-text-0" data-fill-palette-color="primary" id="text-0"></path></svg></g></svg></g><g transform="matrix(1,0,0,1,0,28.292151663326653)"><svg viewBox="0 0 192.00000000000003 12.724874703244529" height="12.724874703244529" width="192.00000000000003"><g transform="matrix(1,0,0,1,0,0)"><svg width="192.00000000000003" viewBox="0 -38.25 758.12 50.25" height="12.724874703244529" data-palette-color="#e5ddc6"><path d="M4.9-35.7L14.15-18.15 23.45-35.7 28.3-35.7 16.4-13.85 16.4 0 11.9 0 11.9-13.65 0-35.7 4.9-35.7ZM55.85-13.45L55.85-13.45Q55.85-6.8 52.47-3.15 49.1 0.5 43.35 0.5L43.35 0.5Q39.8 0.5 37.02-1.13 34.25-2.75 32.65-5.88 31.05-9 31.05-13.45L31.05-13.45Q31.05-20.1 34.4-23.7 37.75-27.3 43.5-27.3L43.5-27.3Q47.15-27.3 49.92-25.68 52.7-24.05 54.27-20.98 55.85-17.9 55.85-13.45ZM35.6-13.45L35.6-13.45Q35.6-8.7 37.47-5.93 39.35-3.15 43.45-3.15L43.45-3.15Q47.5-3.15 49.4-5.93 51.3-8.7 51.3-13.45L51.3-13.45Q51.3-18.2 49.4-20.9 47.5-23.6 43.4-23.6L43.4-23.6Q39.3-23.6 37.45-20.9 35.6-18.2 35.6-13.45ZM80.8-26.8L85.2-26.8 85.2 0 81.59 0 80.95-3.55 80.75-3.55Q79.45-1.45 77.15-0.48 74.84 0.5 72.25 0.5L72.25 0.5Q67.39 0.5 64.95-1.83 62.5-4.15 62.5-9.25L62.5-9.25 62.5-26.8 66.95-26.8 66.95-9.55Q66.95-3.15 72.9-3.15L72.9-3.15Q77.34-3.15 79.07-5.65 80.8-8.15 80.8-12.85L80.8-12.85 80.8-26.8ZM106.19-27.3L106.19-27.3Q106.94-27.3 107.82-27.23 108.69-27.15 109.34-27L109.34-27 108.79-22.95Q108.14-23.1 107.37-23.2 106.59-23.3 105.89-23.3L105.89-23.3Q103.84-23.3 102.04-22.18 100.24-21.05 99.17-19.03 98.09-17 98.09-14.3L98.09-14.3 98.09 0 93.69 0 93.69-26.8 97.29-26.8 97.79-21.9 97.99-21.9Q99.29-24.1 101.34-25.7 103.39-27.3 106.19-27.3ZM164.24-35.7L168.94-35.7 159.44 0 154.89 0 147.94-23.4Q147.54-24.85 147.14-26.3 146.74-27.75 146.49-28.88 146.24-30 146.14-30.45L146.14-30.45Q146.09-29.8 145.61-27.68 145.14-25.55 144.44-23.25L144.44-23.25 137.69 0 133.14 0 123.69-35.7 128.39-35.7 133.94-13.9Q134.54-11.6 134.96-9.45 135.39-7.3 135.64-5.4L135.64-5.4Q135.89-7.35 136.39-9.65 136.89-11.95 137.54-14.15L137.54-14.15 143.84-35.7 148.49-35.7 155.04-14Q155.74-11.7 156.24-9.43 156.74-7.15 156.99-5.4L156.99-5.4Q157.24-7.25 157.69-9.43 158.14-11.6 158.74-13.95L158.74-13.95 164.24-35.7ZM183.99-27.25L183.99-27.25Q188.89-27.25 191.24-25.1 193.59-22.95 193.59-18.25L193.59-18.25 193.59 0 190.39 0 189.54-3.8 189.34-3.8Q187.59-1.6 185.66-0.55 183.74 0.5 180.34 0.5L180.34 0.5Q176.69 0.5 174.29-1.43 171.89-3.35 171.89-7.45L171.89-7.45Q171.89-11.45 175.04-13.63 178.19-15.8 184.74-16L184.74-16 189.29-16.15 189.29-17.75Q189.29-21.1 187.84-22.4 186.39-23.7 183.74-23.7L183.74-23.7Q181.64-23.7 179.74-23.08 177.84-22.45 176.19-21.65L176.19-21.65 174.84-24.95Q176.59-25.9 178.99-26.58 181.39-27.25 183.99-27.25ZM189.24-13.1L185.29-12.95Q180.29-12.75 178.36-11.35 176.44-9.95 176.44-7.4L176.44-7.4Q176.44-5.15 177.81-4.1 179.19-3.05 181.34-3.05L181.34-3.05Q184.74-3.05 186.99-4.93 189.24-6.8 189.24-10.7L189.24-10.7 189.24-13.1ZM208.48 0.1L197.68-26.8 202.38-26.8 208.18-11.55Q208.93-9.55 209.53-7.73 210.13-5.9 210.43-4.25L210.43-4.25 210.63-4.25Q210.93-5.5 211.58-7.53 212.23-9.55 212.93-11.6L212.93-11.6 218.38-26.8 223.13-26.8 211.58 3.7Q210.18 7.5 207.96 9.75 205.73 12 201.83 12L201.83 12Q200.63 12 199.73 11.88 198.83 11.75 198.18 11.6L198.18 11.6 198.18 8.1Q198.73 8.2 199.51 8.3 200.28 8.4 201.13 8.4L201.13 8.4Q203.43 8.4 204.86 7.1 206.28 5.8 207.08 3.65L207.08 3.65 208.48 0.1ZM272.13-17.9L272.13-17.9Q272.13-12.35 270.25-8.22 268.38-4.1 264.73-1.8 261.08 0.5 255.68 0.5L255.68 0.5Q250.13 0.5 246.45-1.8 242.78-4.1 240.98-8.25 239.18-12.4 239.18-17.95L239.18-17.95Q239.18-23.45 240.98-27.55 242.78-31.65 246.45-33.95 250.13-36.25 255.73-36.25L255.73-36.25Q261.08-36.25 264.73-33.98 268.38-31.7 270.25-27.58 272.13-23.45 272.13-17.9ZM243.93-17.9L243.93-17.9Q243.93-11.15 246.78-7.28 249.63-3.4 255.68-3.4L255.68-3.4Q261.78-3.4 264.58-7.28 267.38-11.15 267.38-17.9L267.38-17.9Q267.38-24.65 264.58-28.48 261.78-32.3 255.73-32.3L255.73-32.3Q249.68-32.3 246.8-28.48 243.93-24.65 243.93-17.9ZM297.43-26.8L301.83-26.8 301.83 0 298.23 0 297.58-3.55 297.38-3.55Q296.08-1.45 293.78-0.48 291.48 0.5 288.88 0.5L288.88 0.5Q284.03 0.5 281.58-1.83 279.13-4.15 279.13-9.25L279.13-9.25 279.13-26.8 283.58-26.8 283.58-9.55Q283.58-3.15 289.53-3.15L289.53-3.15Q293.98-3.15 295.7-5.65 297.43-8.15 297.43-12.85L297.43-12.85 297.43-26.8ZM319.27-3.1L319.27-3.1Q320.27-3.1 321.32-3.28 322.37-3.45 323.02-3.65L323.02-3.65 323.02-0.3Q322.32 0.05 321.02 0.28 319.72 0.5 318.52 0.5L318.52 0.5Q316.42 0.5 314.65-0.23 312.87-0.95 311.77-2.75 310.67-4.55 310.67-7.8L310.67-7.8 310.67-23.4 306.87-23.4 306.87-25.5 310.72-27.25 312.47-32.95 315.07-32.95 315.07-26.8 322.82-26.8 322.82-23.4 315.07-23.4 315.07-7.9Q315.07-5.45 316.25-4.28 317.42-3.1 319.27-3.1ZM364.67-13.45L364.67-13.45Q364.67-6.8 361.29-3.15 357.92 0.5 352.17 0.5L352.17 0.5Q348.62 0.5 345.84-1.13 343.07-2.75 341.47-5.88 339.87-9 339.87-13.45L339.87-13.45Q339.87-20.1 343.22-23.7 346.57-27.3 352.32-27.3L352.32-27.3Q355.97-27.3 358.74-25.68 361.52-24.05 363.09-20.98 364.67-17.9 364.67-13.45ZM344.42-13.45L344.42-13.45Q344.42-8.7 346.29-5.93 348.17-3.15 352.27-3.15L352.27-3.15Q356.32-3.15 358.22-5.93 360.12-8.7 360.12-13.45L360.12-13.45Q360.12-18.2 358.22-20.9 356.32-23.6 352.22-23.6L352.22-23.6Q348.12-23.6 346.27-20.9 344.42-18.2 344.42-13.45ZM383.97-26.8L383.97-23.4 377.22-23.4 377.22 0 372.82 0 372.82-23.4 368.12-23.4 368.12-25.45 372.82-26.95 372.82-28.5Q372.82-33.7 375.12-35.98 377.42-38.25 381.52-38.25L381.52-38.25Q383.12-38.25 384.44-37.98 385.77-37.7 386.72-37.35L386.72-37.35 385.57-33.9Q384.77-34.15 383.72-34.4 382.67-34.65 381.57-34.65L381.57-34.65Q379.37-34.65 378.29-33.18 377.22-31.7 377.22-28.55L377.22-28.55 377.22-26.8 383.97-26.8ZM410.76-3.1L410.76-3.1Q411.76-3.1 412.81-3.28 413.86-3.45 414.51-3.65L414.51-3.65 414.51-0.3Q413.81 0.05 412.51 0.28 411.21 0.5 410.01 0.5L410.01 0.5Q407.91 0.5 406.14-0.23 404.36-0.95 403.26-2.75 402.16-4.55 402.16-7.8L402.16-7.8 402.16-23.4 398.36-23.4 398.36-25.5 402.21-27.25 403.96-32.95 406.56-32.95 406.56-26.8 414.31-26.8 414.31-23.4 406.56-23.4 406.56-7.9Q406.56-5.45 407.74-4.28 408.91-3.1 410.76-3.1ZM424.26-38L424.26-26.85Q424.26-24.85 424.01-23.1L424.01-23.1 424.31-23.1Q425.61-25.15 427.83-26.2 430.06-27.25 432.66-27.25L432.66-27.25Q437.56-27.25 440.01-24.93 442.46-22.6 442.46-17.45L442.46-17.45 442.46 0 438.11 0 438.11-17.15Q438.11-23.6 432.11-23.6L432.11-23.6Q427.61-23.6 425.93-21.08 424.26-18.55 424.26-13.85L424.26-13.85 424.26 0 419.86 0 419.86-38 424.26-38ZM461.11-27.3L461.11-27.3Q464.56-27.3 467.03-25.8 469.51-24.3 470.83-21.58 472.16-18.85 472.16-15.2L472.16-15.2 472.16-12.55 453.81-12.55Q453.91-8 456.13-5.63 458.36-3.25 462.36-3.25L462.36-3.25Q464.91-3.25 466.88-3.73 468.86-4.2 470.96-5.1L470.96-5.1 470.96-1.25Q468.91-0.35 466.91 0.08 464.91 0.5 462.16 0.5L462.16 0.5Q458.36 0.5 455.43-1.05 452.51-2.6 450.88-5.68 449.26-8.75 449.26-13.2L449.26-13.2Q449.26-17.6 450.73-20.75 452.21-23.9 454.88-25.6 457.56-27.3 461.11-27.3ZM461.06-23.7L461.06-23.7Q457.91-23.7 456.08-21.68 454.26-19.65 453.91-16.05L453.91-16.05 467.56-16.05Q467.51-19.45 465.96-21.58 464.41-23.7 461.06-23.7ZM492.55-35.7L502.4-35.7Q509.05-35.7 512.23-33.18 515.4-30.65 515.4-25.55L515.4-25.55Q515.4-22.7 514.35-20.8 513.3-18.9 511.68-17.78 510.05-16.65 508.25-16L508.25-16 518.05 0 512.8 0 504.15-14.75 497.05-14.75 497.05 0 492.55 0 492.55-35.7ZM502.15-31.8L502.15-31.8 497.05-31.8 497.05-18.55 502.4-18.55Q506.75-18.55 508.75-20.28 510.75-22 510.75-25.35L510.75-25.35Q510.75-28.85 508.65-30.33 506.55-31.8 502.15-31.8ZM533.2-27.25L533.2-27.25Q538.1-27.25 540.45-25.1 542.8-22.95 542.8-18.25L542.8-18.25 542.8 0 539.6 0 538.75-3.8 538.55-3.8Q536.8-1.6 534.87-0.55 532.95 0.5 529.55 0.5L529.55 0.5Q525.9 0.5 523.5-1.43 521.1-3.35 521.1-7.45L521.1-7.45Q521.1-11.45 524.25-13.63 527.4-15.8 533.95-16L533.95-16 538.5-16.15 538.5-17.75Q538.5-21.1 537.05-22.4 535.6-23.7 532.95-23.7L532.95-23.7Q530.85-23.7 528.95-23.08 527.05-22.45 525.4-21.65L525.4-21.65 524.05-24.95Q525.8-25.9 528.2-26.58 530.6-27.25 533.2-27.25ZM538.45-13.1L534.5-12.95Q529.5-12.75 527.57-11.35 525.65-9.95 525.65-7.4L525.65-7.4Q525.65-5.15 527.02-4.1 528.4-3.05 530.55-3.05L530.55-3.05Q533.95-3.05 536.2-4.93 538.45-6.8 538.45-10.7L538.45-10.7 538.45-13.1ZM555.49-38L555.49-28.75Q555.49-27.05 555.42-25.58 555.34-24.1 555.24-23.25L555.24-23.25 555.49-23.25Q556.64-24.95 558.64-26.1 560.64-27.25 563.79-27.25L563.79-27.25Q568.79-27.25 571.82-23.78 574.84-20.3 574.84-13.4L574.84-13.4Q574.84-6.5 571.79-3 568.74 0.5 563.79 0.5L563.79 0.5Q560.64 0.5 558.64-0.65 556.64-1.8 555.49-3.4L555.49-3.4 555.14-3.4 554.24 0 551.09 0 551.09-38 555.49-38ZM563.04-23.6L563.04-23.6Q558.79-23.6 557.14-21.15 555.49-18.7 555.49-13.55L555.49-13.55 555.49-13.35Q555.49-8.4 557.12-5.78 558.74-3.15 563.14-3.15L563.14-3.15Q566.74-3.15 568.52-5.8 570.29-8.45 570.29-13.45L570.29-13.45Q570.29-23.6 563.04-23.6ZM586.24-38L586.24-28.75Q586.24-27.05 586.17-25.58 586.09-24.1 585.99-23.25L585.99-23.25 586.24-23.25Q587.39-24.95 589.39-26.1 591.39-27.25 594.54-27.25L594.54-27.25Q599.54-27.25 602.57-23.78 605.59-20.3 605.59-13.4L605.59-13.4Q605.59-6.5 602.54-3 599.49 0.5 594.54 0.5L594.54 0.5Q591.39 0.5 589.39-0.65 587.39-1.8 586.24-3.4L586.24-3.4 585.89-3.4 584.99 0 581.84 0 581.84-38 586.24-38ZM593.79-23.6L593.79-23.6Q589.54-23.6 587.89-21.15 586.24-18.7 586.24-13.55L586.24-13.55 586.24-13.35Q586.24-8.4 587.87-5.78 589.49-3.15 593.89-3.15L593.89-3.15Q597.49-3.15 599.27-5.8 601.04-8.45 601.04-13.45L601.04-13.45Q601.04-23.6 593.79-23.6ZM614.84-36.85L614.84-36.85Q615.84-36.85 616.61-36.18 617.39-35.5 617.39-34.05L617.39-34.05Q617.39-32.65 616.61-31.95 615.84-31.25 614.84-31.25L614.84-31.25Q613.74-31.25 612.99-31.95 612.24-32.65 612.24-34.05L612.24-34.05Q612.24-35.5 612.99-36.18 613.74-36.85 614.84-36.85ZM612.59-26.8L616.99-26.8 616.99 0 612.59 0 612.59-26.8ZM634.44-3.1L634.44-3.1Q635.44-3.1 636.49-3.28 637.54-3.45 638.19-3.65L638.19-3.65 638.19-0.3Q637.49 0.05 636.19 0.28 634.89 0.5 633.69 0.5L633.69 0.5Q631.59 0.5 629.81-0.23 628.04-0.95 626.94-2.75 625.84-4.55 625.84-7.8L625.84-7.8 625.84-23.4 622.04-23.4 622.04-25.5 625.89-27.25 627.64-32.95 630.24-32.95 630.24-26.8 637.99-26.8 637.99-23.4 630.24-23.4 630.24-7.9Q630.24-5.45 631.41-4.28 632.59-3.1 634.44-3.1ZM684.43-35.7L684.43 0 679.93 0 679.93-16.65 661.63-16.65 661.63 0 657.13 0 657.13-35.7 661.63-35.7 661.63-20.6 679.93-20.6 679.93-35.7 684.43-35.7ZM716.88-13.45L716.88-13.45Q716.88-6.8 713.5-3.15 710.13 0.5 704.38 0.5L704.38 0.5Q700.83 0.5 698.05-1.13 695.28-2.75 693.68-5.88 692.08-9 692.08-13.45L692.08-13.45Q692.08-20.1 695.43-23.7 698.78-27.3 704.53-27.3L704.53-27.3Q708.18-27.3 710.95-25.68 713.73-24.05 715.3-20.98 716.88-17.9 716.88-13.45ZM696.63-13.45L696.63-13.45Q696.63-8.7 698.5-5.93 700.38-3.15 704.48-3.15L704.48-3.15Q708.53-3.15 710.43-5.93 712.33-8.7 712.33-13.45L712.33-13.45Q712.33-18.2 710.43-20.9 708.53-23.6 704.43-23.6L704.43-23.6Q700.33-23.6 698.48-20.9 696.63-18.2 696.63-13.45ZM728.23-38L728.23 0 723.83 0 723.83-38 728.23-38ZM747.07-27.3L747.07-27.3Q750.52-27.3 753-25.8 755.47-24.3 756.8-21.58 758.12-18.85 758.12-15.2L758.12-15.2 758.12-12.55 739.77-12.55Q739.87-8 742.1-5.63 744.32-3.25 748.32-3.25L748.32-3.25Q750.87-3.25 752.85-3.73 754.82-4.2 756.92-5.1L756.92-5.1 756.92-1.25Q754.87-0.35 752.87 0.08 750.87 0.5 748.12 0.5L748.12 0.5Q744.32 0.5 741.4-1.05 738.47-2.6 736.85-5.68 735.22-8.75 735.22-13.2L735.22-13.2Q735.22-17.6 736.7-20.75 738.17-23.9 740.85-25.6 743.52-27.3 747.07-27.3ZM747.02-23.7L747.02-23.7Q743.87-23.7 742.05-21.68 740.22-19.65 739.87-16.05L739.87-16.05 753.52-16.05Q753.47-19.45 751.92-21.58 750.37-23.7 747.02-23.7Z" opacity="1" transform="matrix(1,0,0,1,0,0)" fill="#ffffff" class="slogan-text-1" data-fill-palette-color="secondary" id="text-1"></path></svg></g></svg></g></svg></g></svg></g><g transform="matrix(1,0,0,1,64.7945652049936,0)"><svg viewBox="0 0 62.41086959001284 56.68553043860138" height="56.68553043860138" width="62.41086959001284"><g><svg xmlns="http://www.w3.org/2000/svg" xmlns:xlink="http://www.w3.org/1999/xlink" version="1.1" x="0" y="0" viewBox="7.947257891028869 10.310027048764791 82.67543672731743 75.09110217366627" enable-background="new 0 0 100 100" xml:space="preserve" height="56.68553043860138" width="62.41086959001284" class="icon-icon-0" data-fill-palette-color="accent" id="icon-0"><path fill-rule="evenodd" clip-rule="evenodd" d="M19.308 39.618C20.065 39.618 20.677 39.443 21.143 39.094 21.666 38.686 21.928 38.163 21.928 37.522A2.67 2.67 0 0 0 21.23 35.689C20.822 35.106 20.328 34.816 19.746 34.816 19.048 34.816 18.407 35.049 17.824 35.514 17.301 35.922 17.038 36.416 17.038 36.998 17.038 37.696 17.242 38.308 17.65 38.832 18.057 39.357 18.61 39.618 19.308 39.618M89.95 64.246C91.905 67.091 89.456 74.255 84.454 74.898 83.69 74.783 82.845 74.362 82.27 73.849 78.631 76.168 76.825 80.575 72.926 82.058 65.692 84.813 54.578 85.883 52.578 85.202 51.697 84.576 50.902 83.584 50.746 82.232 50.459 79.72 53.853 79.396 55.375 77.692 52.344 76.175 48.904 74.17 44.723 75.074 39.785 76.142 37.666 83.273 35.312 83.975 31.611 85.079 29.666 85.052 25.419 84.499 24.704 84.405 24.107 83.826 24.2 83.11 24.729 79.075 29.507 78.548 31.271 73.673L30.833 72.713C25.312 69.953 19.744 62.917 19.743 56.557-3.047 56.56 12.313 28.094 23.148 28.089 25.384 23.575 37.253 7.306 36.685 10.797 35.871 15.807 33.077 21.86 31.88 27.391 34.834 22.529 37.609 17.498 40.963 12.895 41.828 12.052 42.254 12.538 42.885 12.545 45.994 18.421 38.281 24.969 36.855 35.856 36.776 36.461 37.327 36.728 37.819 37.089 38.526 37.607 40.002 37.609 40.002 37.609 43.027 36.4 48.883 33.892 52.053 33.941 62.737 34.107 78.93 41.226 82.356 50.009 84.887 56.503 84.127 65.652 85.413 66.164 86.245 65.05 88.862 62.663 89.95 64.246" fill="#ffffff" data-fill-palette-color="accent"></path></svg></g></svg></g><g></g></svg></g></svg></g></svg></g></svg></g><defs></defs></svg><rect width="320" height="360" fill="none" stroke="none" visibility="hidden"></rect></g></svg></g></svg>